<svg width="282" height="334" viewBox="0 0 282 334" fill="none" xmlns="http://www.w3.org/2000/svg">
<path d="M136.26 0.809796C97.9604 -0.187704 58.2706 16.6371 33.455 52.1947C3.94783 91.3831 -4.4377 147.011 2.09791 197.714C7.99727 251.965 37.7633 304.286 82.4222 322.899C117.293 337.363 156.035 336.003 191.407 324.898C229.308 312.795 260.754 277.379 272.796 233.249C284.294 190.942 284.807 144.151 273.897 101.601C262.504 57.3152 230.958 21.9903 193.26 9.84071C174.808 3.32371 155.463 0.962003 136.259 0.962003L136.26 0.809796ZM136.26 40.2921C166.726 39.6271 200.612 51.5307 217.131 84.016C225.635 100.608 230.952 120.063 231.484 139.348C229.657 151.75 224.596 166.846 232.807 177.613C232.331 185.892 233.494 200.096 223.873 189.921C211.51 184.036 210.061 166.741 213.573 153.564C218.488 131.985 220.734 106.589 208.07 87.8922C185.278 52.8467 141.703 45.5705 107.975 59.9877C90.8775 66.7707 76.6943 81.1431 67.2158 99.1047C64.0474 104.923 49.8116 119.454 56.6817 104.026C65.5411 73.0038 88.1617 47.2564 116.081 42.352C122.725 41.022 129.534 40.3632 136.259 40.3632L136.26 40.2921ZM141.713 68.2169C166.128 67.5519 194.767 82.2797 200.871 112.6C205.66 137.538 188.363 163.794 200.494 187.435C205.582 201.433 224.571 203.365 228.314 213.107C226.549 232.924 206.791 212.444 197.347 208.521C186.606 203.567 173.332 171.941 164.86 194.315C174.846 215.395 194.991 226.369 213.405 234.579C227.165 234.396 214.674 256.158 206.435 245.385C187.432 238.237 169.852 227.035 152.919 214.832C138.179 209.413 125.547 224.869 111.878 229.059C96.7778 236.008 81.1173 241.035 65.4164 245.69C61.5838 237.61 54.084 225.933 67.2433 226.897C110.716 214.096 155.694 188.795 178.581 140.992C187.588 125.531 183.223 103.208 169.791 93.4528C146.809 74.2343 108.595 80.5823 96.3382 112.702C85.668 131.621 66.9169 141.105 49.1288 147.466C45.4698 127.449 62.774 127.707 72.5237 117.4C84.4437 104.632 90.9363 84.9541 106.859 77.5726C117.549 71.2551 130.009 67.7616 141.713 68.2271L141.713 68.2169ZM139.348 98.1103C153.949 96.7803 173.393 111.612 165.762 130.997C147.297 174.175 107.897 197.651 70.0653 210.266C60.4593 214.655 50.5106 217.506 51.5303 201.347C53.5602 190.308 73.9317 193.106 82.9618 185.791C108.852 174.32 134.572 155.862 147.817 126.116C148.915 107.663 129.175 117.839 127.607 130.54C108.602 159.235 78.4534 173.42 49.2163 181.347C47.4189 169.909 47.3035 159.367 59.9071 159.866C81.9162 151.453 104.141 136.719 114.788 111.352C120.342 102.342 130.237 97.691 139.348 98.09V98.1103ZM145.643 230.956C158.546 235.545 169.369 246.452 182.268 251.605C191.454 257.823 216.153 259.692 197.699 271.829C184.578 270.831 170.525 260.518 157.425 254.832C146.212 245.988 133.384 252.509 122.524 258.394C109.968 263.481 95.5881 271.992 83.4061 272.224C77.8031 266.339 67.8051 256.729 81.6518 256.862C101.963 250.843 121.617 242.196 140.67 232.022C140.603 233.352 145.434 229.032 145.643 231.027L145.643 230.956ZM143.165 266.887C156.577 269.547 168.432 278.99 181.492 283.579C167.836 296.114 153.919 284.905 139.37 285.903C126.31 293.982 112.11 293.684 99.2141 284.573C113.593 280.051 127.131 272.544 141.161 266.958L143.165 266.775L143.165 266.887Z" fill="black"/>
</svg>
