<?xml version="1.0" standalone="no"?>
<!DOCTYPE svg PUBLIC "-//W3C//DTD SVG 20010904//EN"
 "http://www.w3.org/TR/2001/REC-SVG-20010904/DTD/svg10.dtd">
<svg version="1.0" xmlns="http://www.w3.org/2000/svg"
 width="1056.000000pt" height="1188.000000pt" viewBox="0 0 1056.000000 1188.000000"
 preserveAspectRatio="xMidYMid meet">

<g transform="translate(0.000000,1188.000000) scale(0.100000,-0.100000)"
fill="#000000" stroke="none">
<path d="M4952 11319 c-1046 -63 -2079 -441 -2918 -1066 -388 -290 -584 -488
-961 -973 -417 -536 -661 -941 -773 -1282 -76 -230 -92 -300 -93 -408 -2 -145
34 -224 119 -262 80 -35 273 -20 367 28 91 48 153 141 252 379 140 337 301
606 619 1025 248 328 407 514 640 745 341 340 661 571 1061 765 550 267 1095
396 1822 431 768 36 1468 -113 2173 -462 536 -266 1006 -613 1465 -1080 207
-211 428 -472 488 -574 111 -192 201 -294 358 -404 132 -94 206 -121 267 -100
79 27 101 141 84 425 -7 118 -18 208 -26 228 -24 57 -154 265 -234 376 -307
421 -702 818 -1136 1143 -1018 760 -2301 1143 -3574 1066z"/>
<path d="M4965 10164 c-975 -75 -1750 -422 -2434 -1089 -358 -349 -631 -708
-1006 -1325 -131 -216 -217 -341 -337 -492 -183 -230 -248 -286 -433 -378
-159 -79 -239 -136 -364 -259 -70 -69 -96 -103 -133 -176 -130 -256 -120 -399
38 -543 104 -96 228 -128 341 -89 89 30 239 146 474 364 545 505 710 702 1034
1233 318 520 524 797 809 1089 325 331 649 561 1008 715 411 177 789 250 1283
250 423 -1 778 -56 1150 -179 789 -263 1458 -852 1868 -1647 149 -289 245
-567 267 -768 19 -179 9 -530 -21 -775 -17 -143 -58 -442 -74 -540 -8 -49 -35
-223 -60 -385 -25 -162 -50 -322 -55 -355 -26 -160 -57 -464 -66 -650 -23
-479 143 -968 483 -1423 44 -58 109 -128 167 -179 105 -92 129 -122 211 -273
31 -58 63 -112 71 -120 12 -13 32 4 160 130 128 128 293 306 377 409 l28 34
-38 40 c-21 22 -101 90 -178 151 -146 117 -185 158 -277 291 -154 222 -258
469 -287 678 -19 136 -11 369 19 597 23 172 53 376 81 550 62 387 107 702 138
955 6 50 18 178 26 285 41 535 -7 881 -180 1315 -271 679 -763 1330 -1327
1758 -580 440 -1244 698 -2008 782 -137 16 -639 28 -755 19z"/>
<path d="M5035 8940 c-852 -70 -1620 -520 -2198 -1290 -201 -268 -358 -539
-535 -927 -159 -346 -350 -602 -723 -968 -209 -205 -420 -385 -689 -587 -160
-120 -212 -152 -382 -239 -167 -85 -204 -108 -243 -151 -61 -68 -90 -161 -81
-259 13 -146 102 -355 181 -428 56 -52 111 -67 184 -52 69 14 109 42 213 147
55 57 141 125 255 204 566 395 1078 841 1400 1221 222 263 422 572 522 808
115 271 305 601 476 826 380 500 867 835 1382 950 276 61 610 61 887 -1 656
-146 1287 -669 1519 -1259 113 -286 151 -652 111 -1061 -23 -237 -57 -443
-160 -964 -43 -216 -81 -433 -100 -565 -58 -411 -58 -788 0 -1100 8 -44 20
-107 26 -140 19 -97 75 -311 115 -433 95 -295 235 -569 410 -804 48 -63 82
-122 100 -170 70 -189 100 -228 207 -281 87 -43 282 -101 312 -93 40 11 396
294 552 439 51 48 57 56 45 71 -26 31 -146 102 -256 152 -149 66 -237 126
-318 215 -219 239 -375 579 -471 1029 -84 393 -84 638 0 1160 8 52 19 118 24
145 49 250 63 320 89 455 114 587 144 835 144 1200 0 301 -13 427 -70 670 -81
351 -243 681 -480 980 -89 113 -345 368 -463 462 -386 307 -799 502 -1250 592
-220 44 -530 63 -735 46z"/>
<path d="M9445 7957 c-85 -39 -130 -141 -129 -292 1 -96 3 -105 51 -225 71
-177 130 -368 164 -530 45 -218 62 -327 90 -585 19 -173 22 -254 23 -605 0
-512 -19 -741 -104 -1285 -24 -150 -28 -171 -77 -405 -49 -228 -52 -337 -11
-420 35 -72 109 -146 178 -179 46 -22 69 -26 140 -26 73 0 93 4 142 28 90 44
127 99 178 267 95 314 117 412 166 745 42 285 55 418 95 930 20 251 3 764 -36
1104 -68 586 -221 1201 -329 1319 -30 34 -51 43 -238 107 -181 61 -255 74
-303 52z"/>
<path d="M5100 7673 c-350 -33 -679 -175 -967 -417 -191 -160 -379 -404 -490
-636 -239 -498 -388 -774 -558 -1030 -373 -563 -773 -960 -1567 -1552 -402
-301 -492 -361 -648 -436 -80 -39 -173 -90 -207 -114 -70 -49 -173 -145 -173
-161 0 -33 376 -631 411 -653 18 -11 113 63 252 196 101 97 192 170 387 310
1179 847 1680 1325 2152 2050 198 303 317 522 561 1031 201 418 525 673 902
709 271 25 507 -59 696 -251 219 -221 364 -610 345 -926 -31 -504 -402 -1177
-1085 -1967 -500 -579 -1250 -1292 -2061 -1957 -214 -176 -240 -194 -395 -275
-71 -37 -159 -87 -195 -113 -79 -55 -161 -131 -155 -141 15 -25 368 -230 572
-334 l132 -67 79 63 c43 35 121 92 172 128 99 68 171 127 305 245 44 39 139
120 210 180 604 509 1309 1180 1708 1626 820 916 1251 1641 1388 2330 31 156
34 514 6 654 -110 536 -341 932 -702 1205 -300 227 -698 339 -1075 303z"/>
<path d="M5062 6319 c-52 -10 -44 -5 -174 -106 -130 -101 -208 -200 -284 -358
-88 -186 -123 -292 -145 -448 -25 -168 -41 -213 -122 -332 -329 -487 -1014
-1239 -1652 -1814 -297 -268 -742 -642 -855 -718 -25 -16 -96 -58 -159 -92
-62 -34 -140 -80 -172 -102 -67 -45 -189 -156 -189 -172 0 -14 181 -198 310
-315 106 -96 276 -232 290 -232 4 0 41 22 81 48 93 61 173 139 273 265 63 79
120 133 311 291 470 391 719 618 1131 1030 179 179 352 364 451 481 88 105
207 242 264 305 57 63 151 170 208 238 98 117 169 196 501 556 319 345 416
470 495 639 83 176 112 377 72 493 -48 141 -237 305 -384 333 -73 15 -203 20
-251 10z"/>
<path d="M6234 3501 c-54 -14 -135 -64 -171 -106 -41 -47 -131 -228 -166 -337
-56 -168 -84 -316 -97 -511 -22 -310 31 -625 155 -926 48 -116 236 -485 290
-566 73 -112 120 -162 283 -301 l143 -122 72 20 c183 51 436 141 612 218 l49
21 -104 55 c-200 106 -310 191 -369 283 -17 26 -55 108 -85 182 -29 74 -77
174 -106 224 -109 183 -179 354 -217 530 -22 101 -25 411 -4 495 30 127 56
201 104 305 49 105 52 114 52 195 0 71 -5 95 -27 141 -35 76 -85 129 -159 169
-52 27 -74 33 -143 36 -44 2 -95 0 -112 -5z"/>
<path d="M4660 1590 c-226 -31 -456 -141 -739 -354 -53 -39 -127 -94 -165
-121 -134 -94 -356 -301 -356 -332 0 -6 26 -19 58 -28 31 -8 147 -42 257 -75
197 -58 385 -107 497 -130 l56 -11 89 55 c48 30 133 92 188 137 55 46 125 99
155 117 51 31 60 33 120 29 118 -8 185 -61 290 -232 34 -55 76 -121 93 -147
l32 -47 95 -1 c176 0 684 40 699 56 11 10 -50 154 -131 313 -157 306 -387 545
-641 665 -189 89 -420 130 -597 106z"/>
</g>
</svg>
