<?xml version="1.0" encoding="UTF-8" standalone="no"?>
<svg
   width="24"
   height="24"
   viewBox="0 0 24 24"
   version="1.1"
   id="svg4"
   sodipodi:docname="logo_simple - Copy.svg"
   inkscape:version="1.2.1 (9c6d41e410, 2022-07-14)"
   xml:space="preserve"
   xmlns:inkscape="http://www.inkscape.org/namespaces/inkscape"
   xmlns:sodipodi="http://sodipodi.sourceforge.net/DTD/sodipodi-0.dtd"
   xmlns="http://www.w3.org/2000/svg"
   xmlns:svg="http://www.w3.org/2000/svg"><defs
     id="defs8" /><sodipodi:namedview
     id="namedview6"
     pagecolor="#ffffff"
     bordercolor="#000000"
     borderopacity="0.25"
     inkscape:showpageshadow="2"
     inkscape:pageopacity="0.0"
     inkscape:pagecheckerboard="0"
     inkscape:deskcolor="#d1d1d1"
     showgrid="false"
     inkscape:zoom="97.816438"
     inkscape:cx="10.60149"
     inkscape:cy="4.1659665"
     inkscape:window-width="2400"
     inkscape:window-height="1261"
     inkscape:window-x="3741"
     inkscape:window-y="-9"
     inkscape:window-maximized="1"
     inkscape:current-layer="svg4" /><text
     xml:space="preserve"
     style="font-size:4.29881px;fill:#999999;stroke-width:0.358233"
     x="6.4875813"
     y="5.0046563"
     id="text899"
     transform="scale(0.96545269,1.0357835)"><tspan
       sodipodi:role="line"
       x="6.4875813"
       y="5.0046563"
       id="tspan901"
       style="font-weight:bold;fill:#999999;stroke-width:0.358233">  ptra</tspan></text><text
     xml:space="preserve"
     style="font-size:1.21808px;fill:#999999;stroke-width:0.101507"
     x="9.5788784"
     y="6.601038"
     id="text899-2"
     transform="scale(1.0689259,0.93551854)"><tspan
       sodipodi:role="line"
       x="9.5788784"
       y="6.601038"
       id="tspan901-6"
       style="fill:#999999;stroke-width:0.101507">Solutions</tspan></text><g
     style="fill:#999999;fill-opacity:1"
     id="g3553"
     transform="matrix(-0.01244471,0,0,0.01156341,9.3753293,2.5947131)"><path
       d="M 136.26,0.809796 C 97.9604,-0.187704 58.2706,16.6371 33.455,52.1947 3.94783,91.3831 -4.4377,147.011 2.09791,197.714 7.99727,251.965 37.7633,304.286 82.4222,322.899 c 34.8708,14.464 73.6128,13.104 108.9848,1.999 37.901,-12.103 69.347,-47.519 81.389,-91.649 11.498,-42.307 12.011,-89.098 1.101,-131.648 C 262.504,57.3152 230.958,21.9903 193.26,9.84071 174.808,3.32371 155.463,0.962003 136.259,0.962003 Z m 0,39.482304 c 30.466,-0.665 64.352,11.2386 80.871,43.7239 8.504,16.592 13.821,36.047 14.353,55.332 -1.827,12.402 -6.888,27.498 1.323,38.265 -0.476,8.279 0.687,22.483 -8.934,12.308 -12.363,-5.885 -13.812,-23.18 -10.3,-36.357 4.915,-21.579 7.161,-46.975 -5.503,-65.6718 -22.792,-35.0455 -66.367,-42.3217 -100.095,-27.9045 -17.0975,6.783 -31.2807,21.1554 -40.7592,39.117 -3.1684,5.8183 -17.4042,20.3493 -10.5341,4.9213 8.8594,-31.0222 31.48,-56.7696 59.3993,-61.674 6.644,-1.33 13.453,-1.9888 20.178,-1.9888 z m 5.453,27.9248 c 24.415,-0.665 53.054,14.0628 59.158,44.3831 4.789,24.938 -12.508,51.194 -0.377,74.835 5.088,13.998 24.077,15.93 27.82,25.672 -1.765,19.817 -21.523,-0.663 -30.967,-4.586 -10.741,-4.954 -24.015,-36.58 -32.487,-14.206 9.986,21.08 30.131,32.054 48.545,40.264 13.76,-0.183 1.269,21.579 -6.97,10.806 -19.003,-7.148 -36.583,-18.35 -53.516,-30.553 -14.74,-5.419 -27.372,10.037 -41.041,14.227 -15.1002,6.949 -30.7607,11.976 -46.4616,16.631 -3.8326,-8.08 -11.3324,-19.757 1.8269,-18.793 43.4727,-12.801 88.4507,-38.102 111.3377,-85.905 9.007,-15.461 4.642,-37.784 -8.79,-47.5392 C 146.809,74.2343 108.595,80.5823 96.3382,112.702 85.668,131.621 66.9169,141.105 49.1288,147.466 45.4698,127.449 62.774,127.707 72.5237,117.4 c 11.92,-12.768 18.4126,-32.4459 34.3353,-39.8274 10.69,-6.3175 23.15,-9.811 34.854,-9.3455 z m -2.365,29.8934 c 14.601,-1.33 34.045,13.5017 26.414,32.8867 -18.465,43.178 -57.865,66.654 -95.6967,79.269 -9.606,4.389 -19.5547,7.24 -18.535,-8.919 2.0299,-11.039 22.4014,-8.241 31.4315,-15.556 25.8902,-11.471 51.6102,-29.929 64.8552,-59.675 1.098,-18.453 -18.642,-8.277 -20.21,4.424 -19.005,28.695 -49.1536,42.88 -78.3907,50.807 -1.7974,-11.438 -1.9128,-21.98 10.6908,-21.481 22.0091,-8.413 44.2339,-23.147 54.8809,-48.514 5.554,-9.01 15.449,-13.661 24.56,-13.262 z m 6.295,132.8457 c 12.903,4.589 23.726,15.496 36.625,20.649 9.186,6.218 33.885,8.087 15.431,20.224 -13.121,-0.998 -27.174,-11.311 -40.274,-16.997 -11.213,-8.844 -24.041,-2.323 -34.901,3.562 -12.556,5.087 -26.9359,13.598 -39.1179,13.83 -5.603,-5.885 -15.601,-15.495 -1.7543,-15.362 20.3112,-6.019 39.9652,-14.666 59.0182,-24.84 -0.067,1.33 4.764,-2.99 4.973,-0.995 z m -2.478,35.931 c 13.412,2.66 25.267,12.103 38.327,16.692 -13.656,12.535 -27.573,1.326 -42.122,2.324 -13.06,8.079 -27.26,7.781 -40.1559,-1.33 14.3789,-4.522 27.9169,-12.029 41.9469,-17.615 l 2.004,-0.183 z"
       fill="#000000"
       id="path3544"
       style="fill:#999999;fill-opacity:1" /></g></svg>
