<?xml version="1.0" encoding="UTF-8" standalone="no"?>
<svg
   width="24"
   height="24"
   viewBox="0 0 24 24"
   version="1.1"
   id="svg4"
   sodipodi:docname="logo.svg"
   inkscape:version="1.2.1 (9c6d41e410, 2022-07-14)"
   xml:space="preserve"
   inkscape:export-filename="logo.png"
   inkscape:export-xdpi="4096"
   inkscape:export-ydpi="4096"
   xmlns:inkscape="http://www.inkscape.org/namespaces/inkscape"
   xmlns:sodipodi="http://sodipodi.sourceforge.net/DTD/sodipodi-0.dtd"
   xmlns="http://www.w3.org/2000/svg"
   xmlns:svg="http://www.w3.org/2000/svg"><defs
     id="defs8" /><sodipodi:namedview
     id="namedview6"
     pagecolor="#ffffff"
     bordercolor="#000000"
     borderopacity="0.25"
     inkscape:showpageshadow="2"
     inkscape:pageopacity="0.0"
     inkscape:pagecheckerboard="0"
     inkscape:deskcolor="#d1d1d1"
     showgrid="false"
     inkscape:zoom="64"
     inkscape:cx="11.648437"
     inkscape:cy="9.203125"
     inkscape:window-width="2400"
     inkscape:window-height="1261"
     inkscape:window-x="3741"
     inkscape:window-y="-9"
     inkscape:window-maximized="1"
     inkscape:current-layer="g6819"
     showguides="true"><sodipodi:guide
       position="11.65625,19.28125"
       orientation="0,-1"
       id="guide5344"
       inkscape:locked="false" /><sodipodi:guide
       position="9.703125,11.421875"
       orientation="0,-1"
       id="guide5346"
       inkscape:locked="false" /></sodipodi:namedview><g
     id="g6819"
     transform="matrix(0.8933318,0,0,1,1.0546064,4.65625)"><g
       id="g6568"
       transform="translate(-0.49471174,0.04419409)"><text
         xml:space="preserve"
         style="font-size:7.88942px;fill:#999999;stroke-width:0.65745"
         x="1.2802606"
         y="5.6017914"
         id="text899"
         transform="scale(0.96545272,1.0357835)"><tspan
           sodipodi:role="line"
           x="1.2802606"
           y="5.6017914"
           id="tspan901"
           style="font-weight:bold;fill:#999999;stroke-width:0.65745">  ptra</tspan></text><text
         xml:space="preserve"
         style="font-size:2.23549px;fill:#999999;stroke-width:0.186292"
         x="7.9822083"
         y="8.1475477"
         id="text899-2"
         transform="scale(1.0689259,0.93551854)"><tspan
           sodipodi:role="line"
           x="7.9822083"
           y="8.1475477"
           id="tspan901-6"
           style="fill:#999999;stroke-width:0.186292">Solutions</tspan></text><g
         style="fill:#999999;fill-opacity:1"
         id="g3553"
         transform="matrix(-0.02283926,0,0,0.02122184,6.9471269,1.0507102)"><path
           d="M 136.26,-46.308491 C 97.9604,-47.377024 58.2706,-29.354111 33.455,8.7355756 3.94783,50.714615 -4.4377,110.30383 2.09791,164.61742 7.99727,222.73169 37.7633,278.77851 82.4222,298.71697 c 34.8708,15.49398 73.6128,14.03713 108.9848,2.14133 37.901,-12.96486 69.347,-50.90285 81.389,-98.17539 11.498,-45.31972 12.011,-95.44274 1.101,-141.022769 -11.393,-47.43943 -42.939,-85.279847 -80.637,-98.29462 -18.452,-6.98108 -37.797,-9.510966 -57.001,-9.510966 z m 0,42.2938724 c 30.466,-0.7123552 64.352,12.0389107 80.871,46.8375166 8.504,17.77353 13.821,38.613937 14.353,59.272232 -1.827,13.28517 -6.888,29.45616 1.323,40.98989 -0.476,8.86856 0.687,24.08404 -8.934,13.18446 -12.363,-6.30407 -13.812,-24.83067 -10.3,-38.94601 4.915,-23.115663 7.161,-50.320129 -5.503,-70.348345 C 185.278,9.434006 141.703,1.6396608 107.975,17.083521 90.8775,24.349546 76.6943,39.745417 67.2158,58.986077 c -3.1684,6.232626 -17.4042,21.79839 -10.5341,5.27175 8.8594,-33.231318 31.48,-60.8122117 59.3993,-66.0658583 6.644,-1.4247105 13.453,-2.1304243 20.178,-2.1304243 z m 5.453,29.9133476 c 24.415,-0.712354 53.054,15.064225 59.158,47.543659 4.789,26.713852 -12.508,54.839562 -0.377,80.164062 5.088,14.99481 24.077,17.06439 27.82,27.50013 -1.765,21.22818 -21.523,-0.71022 -30.967,-4.91258 -10.741,-5.30677 -24.015,-39.18489 -32.487,-15.2176 9.986,22.5811 30.131,34.33657 48.545,43.13122 13.76,-0.19604 1.269,23.11566 -6.97,11.57551 -19.003,-7.65703 -36.583,-19.65672 -53.516,-32.72872 -14.74,-5.80488 -27.372,10.75174 -41.041,15.24012 -15.1002,7.44385 -30.7607,12.82883 -46.4616,17.8153 -3.8326,-8.65537 -11.3324,-21.1639 1.8269,-20.13125 C 110.716,182.16601 155.694,155.0633 178.581,103.85622 187.588,87.294216 183.223,63.381576 169.791,52.9317 146.809,32.344635 108.595,39.144681 96.3382,73.551652 85.668,93.817888 66.9169,103.97726 49.1288,110.79123 45.4698,89.348801 62.774,89.625169 72.5237,78.584201 c 11.92,-13.67722 18.4126,-34.7564 34.3353,-42.663544 10.69,-6.767375 23.15,-10.509649 34.854,-10.011 z m -2.365,32.022136 c 14.601,-1.424711 34.045,14.463167 26.414,35.22858 -18.465,46.252755 -57.865,71.400505 -95.6967,84.913825 -9.606,4.70154 -19.5547,7.75556 -18.535,-9.55414 2.0299,-11.82508 22.4014,-8.82785 31.4315,-16.66375 25.8902,-12.28785 51.6102,-32.06026 64.8552,-63.924505 1.098,-19.767054 -18.642,-8.866412 -20.21,4.739039 -19.005,30.738386 -49.1536,45.933516 -78.3907,54.425006 -1.7974,-12.2525 -1.9128,-23.54521 10.6908,-23.01068 22.0091,-9.0121 44.2339,-24.79532 54.8809,-51.968723 5.554,-9.651609 15.449,-14.633811 24.56,-14.206399 z m 6.295,142.305755 c 12.903,4.91578 23.726,16.59949 36.625,22.11944 9.186,6.66078 33.885,8.66288 15.431,21.66417 -13.121,-1.06908 -27.174,-12.11648 -40.274,-18.20738 -11.213,-9.47379 -24.041,-2.48843 -34.901,3.81565 -12.556,5.44925 -26.9359,14.56632 -39.1179,14.81485 -5.603,-6.30407 -15.601,-16.59842 -1.7543,-16.45595 20.3112,-6.44761 39.9652,-15.71037 59.0182,-26.60887 -0.067,1.42471 4.764,-3.20292 4.973,-1.06585 z m -2.478,38.48968 c 13.412,2.84941 25.267,12.96486 38.327,17.88065 -13.656,13.42762 -27.573,1.42041 -42.122,2.4895 -13.06,8.6543 -27.26,8.33509 -40.1559,-1.42473 14.3789,-4.84399 27.9169,-12.88558 41.9469,-18.86936 l 2.004,-0.19603 z"
           fill="#000000"
           id="path3544"
           style="fill:#999999;fill-opacity:1;stroke-width:1.03499" /></g></g><path
       style="fill:#ffffff;stroke-width:0.015625"
       d="M 3.734375,12.309895 C 3.430305,12.281255 3.0059292,12.173954 2.7606892,12.063705 2.1824706,11.803763 1.6621533,11.192732 1.3825634,10.445312 1.1576572,9.8440772 1.0367948,8.8551514 1.0925394,8.0722666 1.1446418,7.3405342 1.2772009,6.7804914 1.508519,6.3148129 1.688861,5.951757 1.8589042,5.717344 2.129673,5.4585207 2.5270492,5.0786757 3.0465487,4.8585031 3.6938114,4.7956128 3.9572052,4.7700205 4.407007,4.7852219 4.5795203,4.8255459 4.9871306,4.9208226 5.3307297,5.0960232 5.6463294,5.36951 5.9938791,5.6706835 6.3549386,6.2411832 6.5378069,6.7781076 6.7253239,7.3286812 6.8029216,7.833597 6.8036356,8.5078125 6.8045403,9.3620561 6.6725036,10.051664 6.3874123,10.681684 6.1023956,11.311539 5.6540086,11.822832 5.1796875,12.058846 4.9217636,12.187184 4.5725642,12.28212 4.25,12.311597 c -0.203595,0.01861 -0.3035239,0.01828 -0.515625,-0.0017 z M 4.5898202,11.3454 c 0.083922,-0.03318 0.2070548,-0.107458 0.2070548,-0.1249 0,-0.0053 -0.043945,-0.02671 -0.097656,-0.04748 C 4.6455078,11.152247 4.45397,11.06191 4.2735792,10.972269 3.9724937,10.822651 3.9401755,10.810027 3.8795011,10.818344 c -0.084303,0.01155 -0.2323963,0.07877 -0.4498136,0.204163 -0.094531,0.05452 -0.2059258,0.11616 -0.2475434,0.13698 l -0.075668,0.03786 0.055917,0.0491 c 0.056339,0.04947 0.1841271,0.09749 0.258412,0.09711 0.022073,-1.1e-4 0.1069297,-0.01445 0.1885703,-0.03187 0.3242441,-0.06917 0.3305109,-0.06941 0.4243784,-0.01644 0.1761736,0.09943 0.3840469,0.118178 0.5560668,0.05016 z M 5.25102,10.782097 C 5.300109,10.707737 5.309979,10.639702 5.275794,10.611331 5.264199,10.601731 5.217319,10.586741 5.1716156,10.578071 5.0005919,10.545642 4.4695148,10.310937 4.125,10.115533 3.863513,9.967222 3.8801498,9.9704287 3.7466583,10.042609 c -0.062615,0.03386 -0.1982208,0.122361 -0.3013458,0.196676 -0.1918825,0.138276 -0.4605222,0.291452 -0.621607,0.354433 -0.1115047,0.0436 -0.1830805,0.107283 -0.1830805,0.1629 0,0.02641 0.023383,0.06632 0.065839,0.112382 0.062227,0.06751 0.069239,0.07088 0.1278367,0.06151 0.034099,-0.0055 0.1080328,-0.02833 0.1642975,-0.05084 0.095327,-0.03814 0.503023,-0.260843 0.6264022,-0.342175 0.1829,-0.12057 0.3351942,-0.108769 0.609375,0.04722 0.3160911,0.179833 0.6985969,0.344486 0.828125,0.356475 0.060957,0.0056 0.1034419,-0.03021 0.18852,-0.159095 z m -2.6970677,-0.39398 c 0.021889,-0.01 0.039798,-0.02297 0.039798,-0.02889 0,-0.0059 0.087472,-0.05431 0.1943825,-0.107532 0.217432,-0.108252 0.5334039,-0.3120269 0.7671649,-0.4947572 0.1718682,-0.1343489 0.2311995,-0.1570242 0.3444534,-0.1316434 0.091829,0.02058 0.1689025,0.060254 0.3385953,0.1742975 0.142463,0.095743 0.428962,0.2385011 0.6835286,0.3405911 0.1761386,0.07064 0.5644392,0.207523 0.5690542,0.200606 0.021804,-0.03268 0.090702,-0.212972 0.104912,-0.274531 0.015932,-0.06902 0.01487,-0.08533 -0.00781,-0.119945 C 5.5697355,9.9183922 5.5478966,9.90625 5.5159725,9.90625 5.4559819,9.90625 5.1779003,9.8062184 4.9580411,9.7055508 4.3070717,9.4074894 3.81051,8.9928542 3.4487956,8.4453125 3.3335611,8.2708772 3.1500052,7.8986106 3.1178172,7.7740609 3.0866052,7.6532878 3.086847,7.4139628 3.1183031,7.2925673 3.1894602,7.0179631 3.3863544,6.8026703 3.668358,6.6911131 3.7623931,6.6539139 3.7939641,6.64955 3.9687494,6.6495905 c 0.2264156,4.68e-5 0.3078636,0.02392 0.4892414,0.1433703 0.1427529,0.094013 0.2496219,0.2263668 0.3438019,0.4257892 0.042614,0.090234 0.1058187,0.20625 0.140454,0.2578125 0.087118,0.1296944 0.2689041,0.305745 0.4132464,0.400208 0.1150761,0.07531 0.3599997,0.2005723 0.4391435,0.2245929 l 0.036825,0.011176 -0.00557,-0.1317382 C 5.8178875,7.7917697 5.7780569,7.7325056 5.5570456,7.5807909 5.3639914,7.4482676 5.3113955,7.3882044 5.1411742,7.1058769 4.8987711,6.703828 4.8251681,6.6160417 4.6340586,6.5010381 4.3648219,6.33902 4.2373156,6.3044134 3.9140625,6.3056229 c -0.2276922,8.518e-4 -0.2611539,0.00465 -0.375,0.042578 -0.4071305,0.1356318 -0.6988839,0.4500606 -0.8064147,0.86909 -0.052992,0.2065006 -0.043724,0.4501648 0.034822,0.9155217 0.049211,0.2915611 0.049303,0.5841622 2.313e-4,0.7417934 -0.073883,0.2373332 -0.1317435,0.3126639 -0.3604846,0.4693317 -0.07708,0.052793 -0.1658912,0.1244849 -0.197358,0.1593149 -0.05166,0.057182 -0.056468,0.06993 -0.049542,0.1313744 0.015564,0.1380834 0.086078,0.1857725 0.2066194,0.1397375 C 2.4243021,9.7524558 2.6058973,9.6334136 2.8371662,9.4661111 2.8636231,9.4469719 2.9510881,9.3480798 3.0315331,9.2463509 3.2312898,8.9937426 3.3019944,8.9536773 3.3814284,9.0480792 3.4609455,9.14258 3.4533866,9.1896283 3.3278811,9.3813661 3.2265525,9.5361686 3.1157203,9.6523633 2.948362,9.7792478 2.7864047,9.9020373 2.4793991,10.078125 2.4272748,10.078125 c -0.038872,0 -0.09915,0.06758 -0.09915,0.111166 0,0.06004 0.052485,0.158332 0.1000198,0.187318 0.056578,0.0345 0.072207,0.03593 0.1258075,0.01151 z M 5.7020092,9.5943472 C 5.744785,9.5714542 5.772783,9.4871109 5.7731272,9.3801055 5.7736459,9.2187056 5.7077508,9.1648398 5.4140625,9.0865912 5.328125,9.0636945 5.2191406,9.0219387 5.171875,8.9938005 5.1246094,8.9656622 5.0261719,8.9095323 4.953125,8.8690675 4.4783439,8.6060592 4.0908775,8.2061309 3.8752936,7.7565705 3.7913714,7.5815662 3.793033,7.4714514 3.8804606,7.4141667 c 0.050248,-0.032924 0.1010125,-0.01896 0.1814847,0.049921 0.062905,0.053844 0.1411797,0.1822307 0.1411797,0.2315629 0,0.013648 0.029305,0.068374 0.065122,0.1216131 0.2425523,0.360538 0.573365,0.6434433 0.9895659,0.8462601 0.1723611,0.083992 0.4394603,0.1892121 0.5224434,0.2058088 l 0.044333,0.00887 0.010702,-0.1226933 C 5.8468111,8.6234398 5.8312917,8.5231945 5.789437,8.4593162 5.7618698,8.4172434 5.6795625,8.375 5.625155,8.375 5.5810911,8.375 5.3621509,8.2635023 5.2109375,8.1640551 4.8894183,7.9526047 4.6925239,7.7234928 4.5176642,7.3573433 4.4282012,7.1700112 4.3507181,7.0858072 4.2058617,7.0184948 4.1310495,6.9837311 4.0952042,6.9772328 3.9765625,6.9769261 3.8141437,6.9765058 3.7393009,7.0007175 3.6158108,7.093628 3.4655262,7.2066976 3.376038,7.4120461 3.3985408,7.592197 3.4209433,7.7715439 3.6067373,8.1485022 3.8036195,8.4140625 3.9243814,8.5769497 4.2380052,8.8891253 4.40625,9.0139106 c 0.1533364,0.113728 0.4470231,0.2910653 0.6025958,0.3638666 0.4279917,0.2002815 0.6146365,0.2585962 0.6931634,0.21657 z M 2.2730154,9.0677766 C 2.3949334,8.9636995 2.44302,8.8882391 2.475651,8.7497886 2.5114464,8.5979116 2.50527,8.4483412 2.4505961,8.1430511 2.4071839,7.9006444 2.4010251,7.8311823 2.3998148,7.5703125 2.3983636,7.2574958 2.4088919,7.1778217 2.4780906,6.9779576 2.6089852,6.5998991 2.9556845,6.2374306 3.3390555,6.0778329 3.540305,5.9940525 3.7207552,5.96448 3.9765625,5.9733571 4.2146641,5.9816197 4.3562366,6.0116204 4.5543234,6.0957906 4.908017,6.2460805 5.2051125,6.5468022 5.4310753,6.9832436 5.492972,7.1027953 5.6428558,7.28125 5.6813705,7.28125 c 0.035789,0 0.025569,-0.06234 -0.046491,-0.2835759 C 5.521437,6.6493872 5.4006997,6.4193056 5.2144864,6.1965571 4.9870936,5.9245494 4.7353998,5.7655804 4.4275831,5.6995516 4.2080498,5.6524601 3.7887344,5.6523161 3.5844852,5.699262 3.386635,5.7447372 3.1791261,5.8256873 3.0295409,5.915748 2.8685161,6.0126963 2.6541697,6.2134504 2.5485433,6.3662445 2.3384286,6.6701862 2.1678322,7.1598889 2.1101771,7.6245901 c -0.023133,0.1864536 -0.020392,0.3297757 0.00942,0.4925974 0.014162,0.077344 0.026287,0.2179687 0.026944,0.3125 0.00109,0.1575158 -0.00256,0.1800628 -0.043715,0.2698798 -0.041805,0.091231 -0.044293,0.107431 -0.035995,0.234375 0.01062,0.162463 0.030044,0.2223077 0.072155,0.2223077 0.016713,0 0.077025,-0.039813 0.1340268,-0.088473 z"
       id="path6660"
       transform="matrix(1.1194049,0,0,1,-1.1805316,-4.65625)" /><path
       style="fill:#ffffff;stroke-width:0.015625"
       d="M 6.9375,9.0859375 V 6.03125 H 7.53125 8.125 V 6.2657746 6.5002993 L 8.2617187,6.3818079 C 8.6269544,6.0652653 8.9141548,5.9309914 9.2686106,5.9110592 c 0.5609377,-0.031543 0.9798354,0.229487 1.2587574,0.7843774 0.191236,0.3804472 0.285132,0.8629595 0.285132,1.4652398 0,0.4402723 -0.03441,0.703983 -0.136034,1.0424486 -0.205265,0.6836676 -0.639321,1.172938 -1.1792629,1.329271 -0.1462826,0.04235 -0.477543,0.05805 -0.650087,0.03081 C 8.6481873,10.53179 8.3808236,10.426727 8.1846171,10.302868 L 8.125,10.265233 v 0.937696 0.937696 H 7.53125 6.9375 Z M 8.9354117,9.536915 C 9.2044583,9.4668373 9.4089309,9.2562306 9.5055666,8.9496558 9.571888,8.7392523 9.5955216,8.5439983 9.5948311,8.2121759 9.5930169,7.340431 9.3671955,6.9811241 8.8218283,6.9822427 8.6115908,6.9826739 8.422217,7.0365777 8.2225557,7.1528213 l -0.097757,0.056914 0.00401,1.139736 0.00401,1.139736 0.085937,0.029481 c 0.1710803,0.05869 0.526597,0.067732 0.7166617,0.018226 z"
       id="path6662"
       transform="matrix(1.1194049,0,0,1,-1.1805316,-4.65625)" /><path
       style="fill:#ffffff;stroke-width:0.015625"
       d="M 12.806012,10.560834 C 12.395166,10.500912 12.081173,10.297407 11.937758,9.9981009 11.858729,9.8331695 11.803872,9.6181078 11.782423,9.3891298 11.772415,9.2822839 11.76571,8.7651914 11.765678,8.0976562 L 11.765625,6.984375 H 11.523437 11.28125 V 6.5078125 6.03125 h 0.242187 0.242188 V 5.390625 4.75 h 0.59375 0.59375 V 5.390625 6.03125 H 13.507812 14.0625 V 6.5078125 6.984375 h -0.554688 -0.554687 l 2.72e-4,1.0507812 c 2.94e-4,1.1391029 0.0029,1.1798971 0.08644,1.3506324 0.068,0.1389858 0.188409,0.2089481 0.39799,0.2312451 0.117804,0.012533 0.309477,-0.026094 0.460164,-0.092735 0.04965,-0.021958 0.107078,-0.039924 0.127615,-0.039924 h 0.03734 l -0.0041,0.4882812 -0.0041,0.4882811 -0.140625,0.03537 c -0.07734,0.01945 -0.220086,0.04582 -0.317206,0.05859 -0.190788,0.02509 -0.636541,0.02844 -0.790844,0.0059 z"
       id="path6664"
       transform="matrix(1.1194049,0,0,1,-1.1805316,-4.65625)" /><path
       style="fill:#ffffff;stroke-width:0.015625"
       d="M 14.796875,8.265625 V 6.03125 h 0.59375 0.59375 v 0.3295932 0.3295932 l 0.144531,-0.1360576 c 0.398328,-0.3749741 0.741581,-0.5386885 1.128906,-0.538431 0.08594,5.72e-5 0.172071,0.00434 0.191407,0.00953 l 0.03516,0.00942 V 6.7144724 7.394047 l -0.05078,-0.008 c -0.02793,-0.0044 -0.110547,-0.01966 -0.183594,-0.033912 -0.177418,-0.034614 -0.596122,-0.03538 -0.789063,-0.00144 -0.07734,0.013604 -0.21621,0.050339 -0.308593,0.081633 L 15.98438,7.489227 V 8.9946097 10.5 h -0.59375 -0.59375 z"
       id="path6666"
       transform="matrix(1.1194049,0,0,1,-1.1805316,-4.65625)" /><path
       style="fill:#ffffff;stroke-width:0.015625"
       d="m 18.845499,10.578426 c -0.440893,-0.119296 -0.768805,-0.463531 -0.89334,-0.9378088 -0.0434,-0.1652671 -0.059,-0.5277217 -0.03108,-0.7218692 0.08982,-0.624566 0.495794,-1.013131 1.242985,-1.1896719 0.197378,-0.046635 0.630755,-0.1073444 1.014012,-0.1420474 0.145206,-0.013148 0.266474,-0.026368 0.269484,-0.029378 C 20.46183,7.5433807 20.4189,7.303552 20.39008,7.2365698 20.294466,7.0143108 20.021901,6.8970725 19.558805,6.879014 19.225772,6.8660273 19.0494,6.9034793 18.583961,7.0860185 18.441644,7.1418333 18.304674,7.1875 18.279584,7.1875 h -0.04562 l 0.0041,-0.5344633 0.0041,-0.5344632 0.109375,-0.028608 c 0.209377,-0.054764 0.642106,-0.1351406 0.867188,-0.1610741 0.311626,-0.035905 0.865039,-0.02492 1.130422,0.022438 0.770586,0.137512 1.145695,0.5030829 1.244375,1.2127331 0.009,0.065012 0.01534,0.7637319 0.01552,1.7226562 L 21.609375,10.5 h -0.585541 -0.58554 l -0.0043,-0.24089 -0.0043,-0.240891 -0.148437,0.131694 c -0.381836,0.338765 -0.625925,0.441404 -1.078125,0.45335 -0.206714,0.0055 -0.259096,0.0018 -0.357626,-0.02484 z M 19.94431,9.632417 c 0.124432,-0.03241 0.311812,-0.1323525 0.411159,-0.2192987 L 20.4375,9.3413267 V 8.8650184 8.3887101 l -0.06641,0.00868 c -0.359902,0.047052 -0.6605,0.094297 -0.759241,0.1193289 -0.254763,0.064586 -0.405053,0.1771854 -0.470707,0.3526608 -0.04054,0.1083525 -0.04488,0.3863409 -0.0077,0.4919351 0.04447,0.1262316 0.195767,0.2499947 0.340662,0.2786611 0.11216,0.02219 0.37201,0.018012 0.470189,-0.00756 z"
       id="path6668"
       transform="matrix(1.1194049,0,0,1,-1.1805316,-4.65625)" /><path
       style="fill:#ffffff;stroke-width:0.015625"
       d="m 8.7202475,12.327101 c -0.046442,-0.0083 -0.1413639,-0.03442 -0.2109375,-0.05812 l -0.1264975,-0.04308 -0.0046,-0.12274 -0.0046,-0.122739 0.051474,0.03441 c 0.138321,0.09247 0.38736,0.173247 0.531284,0.172336 0.092474,-5.85e-4 0.2429695,-0.03993 0.2986339,-0.07807 0.073714,-0.05051 0.1043686,-0.107584 0.1043686,-0.194321 0,-0.161019 -0.067634,-0.205421 -0.40625,-0.266702 -0.1258035,-0.02277 -0.2647814,-0.05823 -0.3125,-0.07973 -0.1742742,-0.07854 -0.2629965,-0.219159 -0.2454634,-0.389038 0.01026,-0.09941 0.040162,-0.160466 0.115479,-0.235783 C 8.6676132,10.786553 8.9820903,10.741011 9.316086,10.826882 9.5013387,10.87451 9.5,10.873245 9.5,11.000746 v 0.109021 l -0.062211,-0.03927 c -0.1223819,-0.07726 -0.2899131,-0.122162 -0.4616416,-0.123742 -0.1390407,-0.0013 -0.1654065,0.0031 -0.234375,0.03855 -0.1099509,0.05658 -0.1526421,0.124642 -0.1441942,0.229888 0.00512,0.06373 0.016626,0.09283 0.050844,0.128546 0.05454,0.05693 0.081245,0.06569 0.3800171,0.124719 0.1352221,0.02672 0.2761483,0.06469 0.3238872,0.08727 0.2017514,0.09544 0.2664383,0.301723 0.1593917,0.508282 -0.05876,0.113385 -0.1469459,0.185446 -0.2882995,0.235584 -0.1051059,0.03728 -0.3676868,0.05164 -0.5031717,0.02751 z"
       id="path6670"
       transform="matrix(1.1194049,0,0,1,-1.1805316,-4.65625)" /><path
       style="fill:#ffffff;stroke-width:0.015625"
       d="m 10.132812,12.305868 c -0.118013,-0.04909 -0.2260053,-0.161266 -0.2754325,-0.286116 -0.050996,-0.128811 -0.051677,-0.409365 -0.0013,-0.535377 0.047794,-0.11955 0.1419886,-0.223578 0.2498015,-0.27588 0.07728,-0.03749 0.108547,-0.04342 0.230056,-0.04366 0.119098,-2.36e-4 0.153988,0.006 0.227914,0.04041 0.168597,0.07859 0.267199,0.223203 0.299201,0.438821 0.03022,0.203605 -0.02515,0.413156 -0.145342,0.550045 -0.122409,0.139417 -0.393749,0.191263 -0.584898,0.111759 z m 0.347405,-0.136438 c 0.06692,-0.02044 0.151537,-0.121677 0.178092,-0.213053 0.02708,-0.09318 0.02668,-0.335377 -6.79e-4,-0.417315 -0.05341,-0.159919 -0.167901,-0.233923 -0.346318,-0.223841 -0.08985,0.0051 -0.115689,0.01337 -0.1659,0.05323 -0.03271,0.02597 -0.07705,0.08201 -0.09854,0.124539 -0.03461,0.06852 -0.03906,0.0969 -0.03906,0.249201 0,0.128396 0.0071,0.1904 0.02826,0.245101 0.03034,0.07861 0.127935,0.178939 0.186193,0.191395 0.01955,0.0042 0.04961,0.01055 0.0668,0.01416 0.03781,0.0079 0.12246,-0.0024 0.191155,-0.02342 z"
       id="path6672"
       transform="matrix(1.1194049,0,0,1,-1.1805316,-4.65625)" /><path
       style="fill:#ffffff;stroke-width:0.015625"
       d="M 11.1875,11.523437 V 10.734375 H 11.28125 11.375 V 11.523437 12.3125 H 11.28125 11.1875 Z"
       id="path6674"
       transform="matrix(1.1194049,0,0,1,-1.1805316,-4.65625)" /><path
       style="fill:#ffffff;stroke-width:0.015625"
       d="m 12.007191,12.328036 c -0.07158,-0.02219 -0.171785,-0.11587 -0.204273,-0.19096 -0.02535,-0.05859 -0.02953,-0.120781 -0.03418,-0.50817 L 11.76345,11.1875 h 0.09484 0.09484 l 8.7e-5,0.394531 c 4.9e-5,0.220884 0.0071,0.419879 0.01608,0.452121 0.0088,0.03167 0.03838,0.07642 0.06573,0.09944 0.04685,0.03942 0.05709,0.04147 0.176413,0.0352 0.10853,-0.0057 0.141068,-0.01455 0.227149,-0.06177 l 0.100472,-0.05513 0.0042,-0.432199 0.0042,-0.432198 h 0.08569 0.08569 v 0.5625 0.5625 h -0.08594 -0.08594 V 12.25 c 0,-0.03438 -0.004,-0.0625 -0.0089,-0.0625 -0.0049,0 -0.03124,0.01678 -0.05859,0.03728 -0.104669,0.07845 -0.185852,0.108342 -0.307551,0.113255 -0.06445,0.0026 -0.138561,-0.0019 -0.164684,-0.01 z"
       id="path6676"
       transform="matrix(1.1194049,0,0,1,-1.1805316,-4.65625)" /><path
       style="fill:#ffffff;stroke-width:0.015625"
       d="m 13.395725,12.327432 c -0.150015,-0.02966 -0.229324,-0.114782 -0.255419,-0.274131 -0.0083,-0.0508 -0.01517,-0.231231 -0.01522,-0.400957 L 13.125,11.34375 H 13.0625 13 v -0.07813 -0.07813 h 0.0625 0.0625 v -0.164063 -0.164062 h 0.09375 0.09375 v 0.164062 0.164063 h 0.203125 0.203125 v 0.07813 0.07813 H 13.515625 13.3125 v 0.335621 c 0,0.369242 0.01275,0.437698 0.0891,0.478581 0.04541,0.02431 0.169606,0.02819 0.258558,0.0081 l 0.05859,-0.01325 v 0.07796 0.07796 l -0.117826,0.01753 c -0.0648,0.0096 -0.122812,0.01675 -0.128906,0.01581 -0.0061,-9.42e-4 -0.04043,-0.0075 -0.07629,-0.01461 z"
       id="path6678"
       transform="matrix(1.1194049,0,0,1,-1.1805316,-4.65625)" /><path
       style="fill:#ffffff;stroke-width:0.015625"
       d="m 13.96875,11.75 v -0.5625 h 0.09375 0.09375 V 11.75 12.3125 H 14.0625 13.96875 Z"
       id="path6680"
       transform="matrix(1.1194049,0,0,1,-1.1805316,-4.65625)" /><path
       style="fill:#ffffff;stroke-width:0.015625"
       d="m 13.953125,10.890625 v -0.09375 h 0.101562 0.101563 v 0.09375 0.09375 h -0.101563 -0.101562 z"
       id="path6682"
       transform="matrix(1.1194049,0,0,1,-1.1805316,-4.65625)" /><path
       style="fill:#ffffff;stroke-width:0.015625"
       d="m 14.817695,12.31575 c -0.151202,-0.05398 -0.265933,-0.17263 -0.309816,-0.3204 -0.09832,-0.331086 0.0055,-0.65742 0.246911,-0.776278 0.299334,-0.147361 0.625922,-0.01969 0.738623,0.28874 0.04334,0.1186 0.03952,0.391546 -0.0072,0.510963 -0.04646,0.118894 -0.151208,0.233173 -0.255332,0.278576 -0.113785,0.04961 -0.302287,0.05801 -0.413234,0.0184 z m 0.317993,-0.145863 c 0.06247,-0.01931 0.150742,-0.11566 0.178832,-0.195188 0.02806,-0.07946 0.02842,-0.368983 5.43e-4,-0.447752 C 15.267391,11.392223 15.150898,11.313186 15,11.313186 c -0.169018,0 -0.274857,0.08513 -0.319652,0.257112 -0.05996,0.230214 0.0022,0.489337 0.138978,0.57893 0.07556,0.04951 0.197309,0.05746 0.316362,0.02066 z"
       id="path6684"
       transform="matrix(1.1194049,0,0,1,-1.1805316,-4.65625)" /><path
       style="fill:#ffffff;stroke-width:0.015625"
       d="m 15.84375,11.75 v -0.5625 h 0.09375 0.09375 V 11.25 c 0,0.03438 0.0032,0.0625 0.007,0.0625 0.0039,0 0.03742,-0.02051 0.07456,-0.04557 0.113975,-0.07692 0.196166,-0.102864 0.325889,-0.102864 0.104594,0 0.12736,0.0055 0.195073,0.0474 0.05865,0.03626 0.08773,0.06903 0.123775,0.139471 l 0.04711,0.09207 0.0052,0.434748 0.0052,0.434748 h -0.0941 -0.09411 l -0.0048,-0.417969 c -0.0043,-0.368603 -0.0082,-0.424112 -0.03322,-0.469981 -0.03439,-0.06302 -0.107482,-0.09642 -0.210973,-0.09642 -0.09236,0 -0.156305,0.02031 -0.264552,0.08402 l -0.08203,0.04828 v 0.42603 0.426037 H 15.9375 15.84375 Z"
       id="path6686"
       transform="matrix(1.1194049,0,0,1,-1.1805316,-4.65625)" /><path
       style="fill:#ffffff;stroke-width:0.015625"
       d="m 17.335937,12.321394 c -0.05156,-0.01202 -0.120117,-0.03309 -0.152343,-0.04683 -0.0584,-0.0249 -0.05859,-0.02529 -0.05859,-0.118523 0,-0.05145 0.0044,-0.09354 0.0099,-0.09354 0.0054,0 0.03285,0.0142 0.06092,0.03155 0.09653,0.05966 0.224546,0.09345 0.354028,0.09345 0.192516,0 0.278302,-0.05298 0.278302,-0.171875 0,-0.110023 -0.03291,-0.130516 -0.302177,-0.18815 -0.191584,-0.04101 -0.274366,-0.07595 -0.326389,-0.137778 -0.126583,-0.150435 -0.07479,-0.368002 0.109873,-0.46158 0.155228,-0.07866 0.322188,-0.08522 0.546037,-0.02146 l 0.113281,0.03227 v 0.09906 0.09906 l -0.05078,-0.03128 c -0.08152,-0.05022 -0.241632,-0.09329 -0.345396,-0.09292 -0.108026,3.86e-4 -0.216376,0.04095 -0.243187,0.09105 -0.02419,0.0452 -0.02083,0.114778 0.0075,0.155219 0.03713,0.05302 0.0927,0.07522 0.283301,0.113191 0.219675,0.04377 0.322262,0.09772 0.365061,0.191988 0.07993,0.176049 -0.01596,0.369491 -0.218748,0.441291 -0.09836,0.03482 -0.314863,0.04277 -0.430563,0.01581 z"
       id="path6688"
       transform="matrix(1.1194049,0,0,1,-1.1805316,-4.65625)" /></g></svg>
